<svg width="15" height="11" viewBox="0 0 15 11" fill="none" xmlns="http://www.w3.org/2000/svg">
<path d="M5.35629 8.25625L12.7719 0.840625C12.9469 0.665625 13.1511 0.578125 13.3844 0.578125C13.6177 0.578125 13.8219 0.665625 13.9969 0.840625C14.1719 1.01563 14.2594 1.22358 14.2594 1.4645C14.2594 1.70542 14.1719 1.91308 13.9969 2.0875L5.96879 10.1375C5.79379 10.3125 5.58962 10.4 5.35629 10.4C5.12295 10.4 4.91879 10.3125 4.74379 10.1375L0.981286 6.375C0.806286 6.2 0.722286 5.99233 0.729286 5.752C0.736286 5.51167 0.827577 5.30371 1.00316 5.12812C1.17874 4.95254 1.3867 4.86504 1.62704 4.86562C1.86737 4.86621 2.07504 4.95371 2.25004 5.12812L5.35629 8.25625Z" fill="#838383"/>
</svg>
